<svg width="24" height="25" viewBox="0 0 24 25" fill="none" xmlns="http://www.w3.org/2000/svg">
<g clip-path="url(#clip0_239_655)">
<mask id="mask0_239_655" style="mask-type:luminance" maskUnits="userSpaceOnUse" x="0" y="0" width="24" height="25">
<path d="M24 0.5H0V24.5H24V0.5Z" fill="white"/>
</mask>
<g mask="url(#mask0_239_655)">
<path d="M24 8.03601V11.5316C24 18.6932 18.6276 24.5 12 24.5C5.3724 24.5 0 18.6932 0 11.5316V8.03601L12.5256 20.9888L24 8.03601Z" fill="#6C63FF"/>
<path d="M0.5256 8.02039C0.3744 8.02039 0.2244 8.02039 0.0756 8.03239C0.0255227 8.47303 0.000282808 8.91613 0 9.35959C0 15.9596 5.3724 21.314 12 21.314C12.1512 21.314 12.3 21.314 12.45 21.3032C12.4994 20.8626 12.5248 20.4194 12.5256 19.976C12.5256 13.3736 7.1532 8.02039 0.5256 8.02039Z" fill="#6C63FF"/>
<path d="M23.9256 8.03599C17.5764 8.34799 12.5256 13.574 12.5256 19.976C12.5256 13.376 7.1532 8.02039 0.5256 8.02039C0.3744 8.02039 0.2244 8.02039 0.0756 8.03239C0.0255227 8.47303 0.000282808 8.91613 0 9.35959C0 15.9596 5.3724 21.314 12 21.314C12.1512 21.314 12.3 21.314 12.45 21.3032C12.5004 21.3032 12.5508 21.3032 12.6 21.3032C18.9492 20.9912 24 15.7652 24 9.36319C23.9996 8.91976 23.9748 8.47669 23.9256 8.03599Z" fill="#6C63FF"/>
<path d="M11.9997 9.14C14.3855 9.14 16.3197 7.20588 16.3197 4.82C16.3197 2.43412 14.3855 0.5 11.9997 0.5C9.61381 0.5 7.67969 2.43412 7.67969 4.82C7.67969 7.20588 9.61381 9.14 11.9997 9.14Z" fill="#6C63FF"/>
</g>
</g>
<defs>
<clipPath id="clip0_239_655">
<rect width="24" height="24" fill="white" transform="translate(0 0.5)"/>
</clipPath>
</defs>
</svg>
